<svg width="1600" height="1600" viewBox="0 0 1600 1600" version="1.1" xmlns="http://www.w3.org/2000/svg" xmlns:xlink="http://www.w3.org/1999/xlink">
<title>pilot</title>
<desc>Created using Figma</desc>
<g id="Canvas" transform="matrix(2 0 0 2 -2184 2472)">
<clipPath id="clip-0" clip-rule="evenodd">
<path d="M 1092 -1236L 1892 -1236L 1892 -436L 1092 -436L 1092 -1236Z" fill="#FFFFFF"/>
</clipPath>
<g id="pilot" clip-path="url(#clip-0)">
<path d="M 1092 -1236L 1892 -1236L 1892 -436L 1092 -436L 1092 -1236Z" fill="#A5E6F0"/>
<g id="Vector">
<use xlink:href="#path0_fill" transform="translate(1315 -866)"/>
</g>
</g>
</g>
<defs>
<path id="path0_fill" d="M 0 54C 0 53.2 0.2 52.4 0.4 51.6C 0.8 50.8 1.2 50.2 1.6 49.6C 2 49 2.8 48.6 3.6 48.4C 4.4 48 5.2 47.8 6 47.8C 6.8 47.8 7.6 48 8.4 48.2C 9.2 48.6 9.8 49 10.4 49.4C 11 49.8 11.4 50.6 11.6 51.4C 12 52.2 12.2 53 12.2 54C 12.2 54.8 12 55.6 11.8 56.4C 11.4 57.2 11 57.8 10.6 58.4C 10 59 9.4 59.4 8.6 59.6C 7.6 59.8 7 60 6 60C 5.2 60 4.4 59.8 3.6 59.6C 2.8 59.2 2.2 58.8 1.6 58.4C 1 57.8 0.6 57.2 0.4 56.4C 0.2 55.4 0 54.8 0 54ZM 44.6 54C 44.6 53.2 44.8 52.4 45 51.6C 45.4 50.8 45.8 50.2 46.4 49.6C 47 49 47.6 48.6 48.4 48.4C 49.2 48 50 48 50.8 48C 51.6 48 52.4 48.2 53.2 48.4C 54 48.8 54.6 49.2 55.2 49.6C 55.8 50 56.2 50.8 56.4 51.6C 56.8 52.4 56.8 53.2 56.8 54C 56.8 54.8 56.6 55.6 56.4 56.4C 56 57.2 55.6 57.8 55.2 58.4C 54.6 59 54 59.4 53.2 59.6C 52.4 60 51.6 60 50.8 60C 50 60 49.2 59.8 48.4 59.6C 47.6 59.2 47 58.8 46.4 58.4C 45.8 57.8 45.4 57.2 45 56.4C 44.8 55.4 44.6 54.8 44.6 54ZM 44.8 6C 44.8 5.2 45 4.4 45.2 3.6C 45.6 2.8 46 2.2 46.4 1.8C 47 1.2 47.6 0.8 48.4 0.6C 49.2 0.2 50 0 50.8 0C 51.6 0 52.4 0.2 53.2 0.4C 54 0.8 54.6 1.2 55.2 1.6C 55.8 2.2 56.2 2.8 56.6 3.4C 57 4.2 57 4.8 57 5.8C 57 6.6 56.8 7.4 56.6 8.2C 56.2 9 55.8 9.6 55.2 10.2C 54.6 10.8 54 11.2 53.2 11.6C 52.4 11.8 51.6 12 50.8 12C 50 12 49.2 11.8 48.4 11.6C 47.6 11.2 47 10.8 46.4 10.2C 45.8 9.6 45.4 9 45.2 8.2C 44.8 7.6 44.8 6.8 44.8 6ZM 44.8 30C 44.8 29.2 45 28.4 45.2 27.6C 45.6 26.8 46 26.2 46.4 25.6C 47 25 47.6 24.6 48.4 24.4C 49.2 24 50 24 50.8 24C 51.6 24 52.4 24.2 53.2 24.4C 54 24.8 54.6 25.2 55.2 25.6C 55.8 26.2 56.2 26.8 56.6 27.6C 57 28.4 57 29.2 57 30C 57 30.8 56.8 31.6 56.6 32.4C 56.2 33.2 55.8 33.8 55.2 34.4C 54.6 35 54 35.4 53.2 35.6C 52.4 36 51.6 36 50.8 36C 50 36 49.2 35.8 48.4 35.6C 47.6 35.2 47 34.8 46.4 34.4C 45.8 33.8 45.4 33.2 45.2 32.4C 44.8 31.6 44.8 30.8 44.8 30ZM 68.4 6C 68.4 5.2 68.6 4.4 68.8 3.6C 69.2 2.8 69.6 2.2 70 1.8C 70.4 1.4 71.2 0.8 72 0.6C 72.8 0.2 73.6 0 74.4 0C 75.2 0 76 0.2 76.8 0.4C 77.6 0.8 78.2 1.2 78.8 1.6C 79.4 2 79.8 2.8 80 3.4C 80.4 4.2 80.4 4.8 80.4 5.8C 80.4 6.6 80.2 7.4 80 8.2C 79.6 9 79.2 9.6 78.8 10.2C 78.2 10.8 77.6 11.2 76.8 11.6C 76 11.8 75.2 12 74.4 12C 73.6 12 72.8 11.8 72 11.6C 71.2 11.2 70.6 10.8 70 10.2C 69.4 9.6 69 9 68.8 8.2C 68.6 7.6 68.4 6.8 68.4 6ZM 113 30C 113 29.2 113.2 28.4 113.4 27.6C 113.8 26.8 114.2 26.2 114.6 25.6C 115.2 25 115.8 24.6 116.6 24.4C 117.4 24 118.2 24 119 24C 119.8 24 120.6 24.2 121.4 24.4C 122.2 24.8 122.8 25.2 123.4 25.6C 124 26.2 124.4 26.8 124.8 27.6C 125.2 28.4 125.2 29.2 125.2 30C 125.2 30.8 125 31.6 124.8 32.4C 124.4 33.2 124 33.8 123.4 34.4C 122.8 35 122.2 35.4 121.4 35.6C 120.8 35.8 120 36 119 36C 118.2 36 117.4 35.8 116.6 35.6C 115.8 35.2 115.2 34.8 114.6 34.4C 114 33.8 113.6 33.2 113.4 32.4C 113.2 31.6 113 30.8 113 30ZM 136.8 6C 136.8 5.2 137 4.4 137.2 3.6C 137.6 2.8 138 2.2 138.4 1.8C 138.8 1.4 139.6 0.8 140.4 0.6C 141.2 0.2 142 0 142.8 0C 143.6 0 144.4 0.2 145.2 0.4C 146 0.8 146.6 1.2 147.2 1.6C 147.8 2 148.2 2.8 148.4 3.4C 148.8 4.2 148.8 4.8 148.8 5.8C 148.8 6.6 148.6 7.4 148.4 8.2C 148 9 147.6 9.6 147.2 10.2C 146.6 10.8 146 11.2 145.2 11.6C 144.4 11.8 143.6 12 142.8 12C 142 12 141.2 11.8 140.4 11.6C 139.6 11.2 139 10.8 138.4 10.2C 137.8 9.6 137.4 9 137.2 8.2C 136.8 7.6 136.8 6.8 136.8 6ZM 181.4 54C 181.4 53.2 181.6 52.4 181.8 51.6C 182.2 50.8 182.6 50.2 183.2 49.6C 183.8 49 184.4 48.6 185.2 48.4C 186 48 186.8 48 187.6 48C 188.4 48 189.2 48.2 190 48.4C 190.8 48.8 191.4 49.2 192 49.6C 192.6 50 193 50.8 193.2 51.6C 193.6 52.4 193.6 53.2 193.6 54C 193.6 54.8 193.4 55.6 193.2 56.4C 192.8 57.2 192.4 57.8 192 58.4C 191.4 59 190.8 59.4 190 59.6C 189.2 60 188.4 60 187.6 60C 186.8 60 186 59.8 185.2 59.6C 184.4 59.2 183.8 58.8 183.2 58.4C 182.6 57.8 182.2 57.2 181.8 56.4C 181.6 55.4 181.4 54.8 181.4 54ZM 181.4 6C 181.4 5.2 181.6 4.4 181.8 3.6C 182.2 2.8 182.6 2.2 183 1.8C 183.6 1.2 184.2 0.8 185 0.6C 185.8 0.2 186.6 0 187.4 0C 188.2 0 189 0.2 189.8 0.4C 190.6 0.8 191.2 1.2 191.8 1.6C 192.4 2.2 192.8 2.8 193.2 3.4C 193.6 4.2 193.6 4.8 193.6 5.8C 193.6 6.6 193.4 7.4 193.2 8.2C 192.8 9 192.4 9.6 191.8 10.2C 191.2 10.8 190.6 11.2 189.8 11.6C 189 11.8 188.4 12 187.4 12C 186.6 12 185.8 11.8 185 11.6C 184.2 11.2 183.6 10.8 183 10.2C 182.4 9.6 182 9 181.8 8.2C 181.6 7.6 181.4 6.8 181.4 6ZM 181.4 30C 181.4 29.2 181.6 28.4 181.8 27.6C 182.2 26.8 182.6 26.2 183 25.6C 183.6 25 184.2 24.6 185 24.4C 185.8 24 186.6 24 187.4 24C 188.2 24 189 24.2 189.8 24.4C 190.6 24.8 191.2 25.2 191.8 25.6C 192.4 26.2 192.8 26.8 193.2 27.6C 193.6 28.4 193.6 29.2 193.6 30C 193.6 30.8 193.4 31.6 193.2 32.4C 192.8 33.2 192.4 33.8 191.8 34.4C 191.2 35 190.6 35.4 189.8 35.6C 189 36 188.2 36 187.4 36C 186.6 36 185.8 35.8 185 35.6C 184.2 35.2 183.6 34.8 183 34.4C 182.4 33.8 182 33.2 181.8 32.4C 181.6 31.6 181.4 30.8 181.4 30ZM 249.8 54C 249.8 53.2 250 52.4 250.2 51.6C 250.6 50.8 251 50.2 251.6 49.6C 252.2 49 252.8 48.6 253.6 48.4C 254.4 48 255.2 48 256 48C 256.8 48 257.6 48.2 258.4 48.4C 259.2 48.8 259.8 49.2 260.4 49.6C 261 50 261.4 50.8 261.6 51.6C 262 52.4 262 53.2 262 54C 262 54.8 261.8 55.6 261.6 56.4C 261.2 57.2 260.8 57.8 260.4 58.4C 259.8 59 259.2 59.4 258.4 59.6C 257.6 60 256.8 60 256 60C 255.2 60 254.4 59.8 253.6 59.6C 252.8 59.2 252.2 58.8 251.6 58.4C 251 57.8 250.6 57.2 250.2 56.4C 249.8 55.4 249.8 54.8 249.8 54ZM 249.8 6C 249.8 5.2 250 4.4 250.2 3.6C 250.6 2.8 251 2.2 251.4 1.8C 252 1.2 252.6 0.8 253.4 0.6C 254.2 0.2 255 0.2 255.8 0.2C 256.6 0.2 257.4 0.4 258.2 0.6C 259 1 259.6 1.4 260.2 1.8C 260.8 2.4 261.2 3 261.6 3.6C 262 4.4 262 5 262 6C 262 6.8 261.8 7.6 261.6 8.4C 261.2 9.2 260.8 9.8 260.2 10.4C 259.6 11 259 11.4 258.2 11.8C 257.4 12.2 256.6 12.2 255.8 12.2C 255 12.2 254.2 12 253.4 11.8C 252.6 11.4 252 11 251.4 10.4C 250.8 9.8 250.4 9.2 250.2 8.4C 250 7.6 249.8 6.8 249.8 6ZM 273.4 29.8C 273.4 29 273.6 28.2 273.8 27.4C 274.2 26.6 274.6 26 275.2 25.4C 275.8 24.8 276.4 24.4 277.2 24.2C 278 23.8 278.8 23.8 279.6 23.8C 280.4 23.8 281.2 24 282 24.2C 282.8 24.6 283.4 25 284 25.4C 284.6 25.8 285 26.6 285.2 27.4C 285.6 28.2 285.6 29 285.6 29.8C 285.6 30.6 285.4 31.4 285.2 32.2C 284.8 33 284.4 33.6 284 34.2C 283.6 34.8 282.8 35.2 282 35.4C 281.2 35.8 280.4 35.8 279.6 35.8C 278.8 35.8 278 35.6 277.2 35.4C 276.4 35 275.8 34.6 275.2 34.2C 274.6 33.6 274.2 33 273.8 32.2C 273.6 31.4 273.4 30.6 273.4 29.8ZM 318 54C 318 53.2 318.2 52.4 318.4 51.6C 318.8 50.8 319.2 50.2 319.8 49.6C 320.4 49 321 48.6 321.8 48.4C 322.6 48 323.4 48 324.2 48C 325 48 325.8 48.2 326.6 48.4C 327.4 48.8 328 49.2 328.6 49.6C 329.2 50 329.6 50.8 329.8 51.6C 330.2 52.4 330.2 53.2 330.2 54C 330.2 54.8 330 55.6 329.8 56.4C 329.4 57.2 329 57.8 328.6 58.4C 328 59 327.4 59.4 326.6 59.6C 325.8 60 325 60 324.2 60C 323.4 60 322.6 59.8 321.8 59.6C 321 59.2 320.4 58.8 319.8 58.4C 319.2 57.8 318.8 57.2 318.4 56.4C 318.2 55.4 318 54.8 318 54ZM 318.2 30C 318.2 29.2 318.4 28.4 318.6 27.6C 319 26.8 319.4 26.2 319.8 25.6C 320.4 25 321 24.6 321.8 24.4C 322.6 24 323.4 24 324.2 24C 325 24 325.8 24.2 326.6 24.4C 327.4 24.8 328 25.2 328.6 25.6C 329.2 26.2 329.6 26.8 330 27.6C 330.4 28.4 330.4 29.2 330.4 30C 330.4 30.8 330.2 31.6 330 32.4C 329.6 33.2 329.2 33.8 328.6 34.4C 328 35 327.4 35.4 326.6 35.6C 325.8 36 325 36 324.2 36C 323.4 36 322.6 35.8 321.8 35.6C 321 35.2 320.4 34.8 319.8 34.4C 319.2 33.8 318.8 33.2 318.6 32.4C 318.4 31.6 318.2 30.8 318.2 30ZM 341.8 29.8C 341.8 29 342 28.2 342.2 27.4C 342.6 26.6 343 26 343.6 25.4C 344.2 24.8 344.8 24.4 345.6 24.2C 346.4 23.8 347.2 23.8 348 23.8C 348.8 23.8 349.6 24 350.4 24.2C 351.2 24.6 351.8 25 352.4 25.4C 353 25.8 353.4 26.6 353.6 27.4C 354 28.2 354 29 354 29.8C 354 30.6 353.8 31.4 353.6 32.2C 353.2 33 352.8 33.6 352.4 34.2C 352 34.8 351.2 35.2 350.4 35.4C 349.6 35.8 348.8 35.8 348 35.8C 347.2 35.8 346.4 35.6 345.6 35.4C 344.8 35 344.2 34.6 343.6 34.2C 343 33.6 342.6 33 342.2 32.2C 341.8 31.4 341.8 30.6 341.8 29.8ZM 341.8 6C 341.8 5.2 342 4.4 342.2 3.6C 342.6 2.8 343 2.2 343.4 1.8C 343.8 1.4 344.6 0.8 345.4 0.6C 346.2 0.2 347 0.2 347.8 0.2C 348.6 0.2 349.4 0.4 350.2 0.6C 351 1 351.6 1.4 352.2 1.8C 352.8 2.2 353.2 3 353.4 3.6C 353.8 4.4 353.8 5 353.8 6C 353.8 6.8 353.6 7.6 353.4 8.4C 353 9.2 352.6 9.8 352.2 10.4C 351.6 11 351 11.4 350.2 11.8C 349.4 12.2 348.6 12.2 347.8 12.2C 347 12.2 346.2 12 345.4 11.8C 344.6 11.4 344 11 343.4 10.4C 342.8 9.8 342.4 9.2 342.2 8.4C 342 7.6 341.8 6.8 341.8 6Z"/>
</defs>
</svg>
